<?xml version="1.0" encoding="utf-8"?>
<!-- ⓒ 2022. Lee Yu. allrights reserved. -->
<svg version="1.1" xmlns="http://www.w3.org/2000/svg" xmlns:xlink="http://www.w3.org/1999/xlink" x="0px" y="0px"
	 viewBox="0 0 100 100" style="enable-background:new 0 0 100 100;" xml:space="preserve">
<style type="text/css">
	.st0{display:none;}
	.st1{display:inline;}
	.st2{display:inline;fill:url(#SVGID_1_);}
	.st3{display:inline;fill:url(#SVGID_00000107587273673453209660000006704842846284195509_);}
	.st4{display:inline;fill:url(#SVGID_00000132048793874265212410000011481106900537127595_);}
	.st5{fill:#9445FB;}
	.st6{fill:url(#SVGID_00000082347852900728905100000013838509809082076860_);}
</style>
<g id="gaji-logo" class="st0">
	<g class="st1">
		<image style="overflow:visible;" width="109" height="76" xlink:href="5F2B4963.png"  transform="matrix(1 0 0 1 -3 34)">
		</image>
	</g>
	<linearGradient id="SVGID_1_" gradientUnits="userSpaceOnUse" x1="77.9593" y1="52.176" x2="-8.4795" y2="48.7356">
		<stop  offset="0" style="stop-color:#A947FF"/>
		<stop  offset="0.1698" style="stop-color:#9445FB"/>
		<stop  offset="0.2559" style="stop-color:#8E3FF2"/>
		<stop  offset="0.3984" style="stop-color:#7D30D8"/>
		<stop  offset="0.4746" style="stop-color:#7226C8"/>
		<stop  offset="0.86" style="stop-color:#460089"/>
	</linearGradient>
	<path class="st2" d="M77.2,38.9c-2.7-4.8-7.7-7.5-12.4-7.2c-1.4,0-2.8,0.3-4,0.8c-1.6,0.8-2.9,1.9-3.8,3.4
		c-0.4,0.6-0.6,1.2-0.9,1.8c0,0,0,0.1,0,0.1c-0.5,1.3-0.8,2.7-1.3,4c-0.1,0.2-0.1,0.4-0.2,0.5c0,0.1,0,0.2,0,0.3
		c-0.2,0.3-0.4,0.7-0.6,1c-6.3,9.7-19.2,12.1-29.5,5.7c-0.3,0.2-0.5,0.3-0.8,0.4c0.7,2.2,1.8,4.4,3.1,6.4c2.3,3.6,5.3,6.7,8.6,9.1
		c4.9,3.6,10.7,5.8,16.4,6c4.2,0.2,8.4-0.6,12.1-2.3c0,0,0,0,0,0c1.6-0.7,3.1-1.6,4.4-2.6c1.8-1.4,3.5-2.9,5-4.6
		c2.5-2.9,4.4-6.6,5.2-10.6C79.3,47.2,79.4,42.7,77.2,38.9z"/>
	
		<linearGradient id="SVGID_00000129186851514557865800000003634662559579974543_" gradientUnits="userSpaceOnUse" x1="29.2191" y1="26.3644" x2="50.8436" y2="69.746">
		<stop  offset="0.1114" style="stop-color:#9445FB"/>
		<stop  offset="0.2662" style="stop-color:#8E3FF2"/>
		<stop  offset="0.5228" style="stop-color:#7D30D8"/>
		<stop  offset="0.6599" style="stop-color:#7226C8"/>
		<stop  offset="0.9515" style="stop-color:#460089"/>
	</linearGradient>
	<path style="display:inline;fill:url(#SVGID_00000129186851514557865800000003634662559579974543_);" d="M52.2,44.6
		c-1.6,0.4-3.4-0.6-4.6-1.9c-1.1-1.2-1.9-2.6-2.9-3.9c-0.3,0.1-0.6,0.3-0.9,0.4c-1.4,0.6-2.9,1.1-4.4,1.3c-2.3,0.3-4.6,0-6.7-1.1
		c-0.5-0.3-1-0.6-1.5-0.9c-0.8-0.5-1.7-0.8-2.4,0c-0.6,0.7-0.8,1.8-0.9,2.7c-0.2,1.2-0.2,2.5-0.5,3.7c-0.4,1.5-1.5,3.3-2.9,4.2
		c-0.3,0.2-0.5,0.3-0.8,0.4c0.7,2.2,1.8,4.4,3.1,6.4c2.3,3.6,5.3,6.7,8.6,9.1c0.9-0.1,1.9-0.2,2.8-0.4c10.1-2.3,15.3-14,16.5-22.2
		c0-0.1,0-0.2,0-0.3C54.1,43.4,53.3,44.3,52.2,44.6z"/>
	
		<linearGradient id="SVGID_00000083778181107469019150000010714976728129259916_" gradientUnits="userSpaceOnUse" x1="44.1289" y1="93.0995" x2="54.0694" y2="129.5482" gradientTransform="matrix(0.9777 -0.2099 0.2099 0.9777 -39.8839 -63.3469)">
		<stop  offset="5.111371e-02" style="stop-color:#BFD513"/>
		<stop  offset="0.2924" style="stop-color:#B3D513"/>
		<stop  offset="0.7608" style="stop-color:#77B913"/>
	</linearGradient>
	<path style="display:inline;fill:url(#SVGID_00000083778181107469019150000010714976728129259916_);" d="M48.2,31
		c-0.8-0.3-1.8-0.2-2.5,0.3c-1.4,1-4.7,2.4-8.5-2.4c-0.8-1-1.9-2-3.1-2.4c-1-0.3-2-0.3-3,0.1c-0.9,0.3-1.7,0.8-2.4,1.4
		c-0.3,0.3-0.6,0.5-0.9,0.8c-0.3,0.3-0.5,0.8-1,0.8c-0.2,0-0.3-0.1-0.4-0.3c0,0,0,0,0,0c-0.1-0.1-0.1-0.1-0.2-0.2
		c-0.3-0.4-0.7-0.8-1-1.3c-0.4-0.4-0.8-0.9-1.4-1.1c-0.5-0.1-1-0.1-1.4,0.1c-0.5,0.2-0.9,0.6-1.4,1c0,0-0.1,0.1-0.1,0.1
		c-0.6,0.6-1,1.3-1.1,2.2c-0.1,0.8,0.1,1.6,0.5,2.3c0.1,0.3,0.3,0.5,0.4,0.7c0.2,0.3,0.6,0.6,0.7,1c0.3,0.9-0.3,2-1,2.6
		c-1.7,1.4-6.9,5.5-1.1,11.4c0.7,0.7,1.5,1.3,2.5,1.5c0.6,0.1,1.2,0.1,1.7-0.1c0.3-0.1,0.5-0.2,0.8-0.4c1.4-0.9,2.4-2.7,2.9-4.2
		c0.4-1.2,0.3-2.5,0.5-3.7c0.1-0.9,0.3-1.9,0.9-2.7c0.7-0.8,1.6-0.5,2.4,0c0.5,0.3,1,0.6,1.5,0.9c2.1,1.1,4.4,1.4,6.7,1.1
		c1.5-0.2,3-0.7,4.4-1.3c0.3-0.1,0.6-0.3,0.9-0.4c2.3-1,5-2.4,4.8-5.4C49.5,32.4,49.1,31.4,48.2,31z"/>
</g>
<g id="basic-logo">
	<g>
		<path class="st5" d="M79.5,40.5c-2.7-4.6-7.8-7.3-12.5-6.9c-1.4,0-2.8,0.2-4.1,0.8c-1.6,0.7-2.9,1.9-3.8,3.2
			c-0.4,0.5-0.6,1.1-0.9,1.7c0,0,0,0.1,0,0.1c-0.5,1.2-0.8,2.6-1.3,3.8c-0.1,0.2-0.1,0.4-0.2,0.5c0,0.1,0,0.2,0,0.3
			c-0.2,0.3-0.4,0.7-0.6,1c-6.3,9.3-19.4,11.6-29.7,5.5c-0.3,0.2-0.5,0.3-0.8,0.4c0.7,2.1,1.8,4.2,3.1,6.2c2.3,3.4,5.3,6.4,8.7,8.8
			c5,3.5,10.8,5.6,16.5,5.8c4.2,0.2,8.5-0.6,12.2-2.2c0,0,0,0,0,0c1.6-0.7,3.1-1.5,4.4-2.5c1.8-1.3,3.5-2.8,5-4.4
			c2.6-2.8,4.4-6.3,5.2-10.2C81.6,48.5,81.7,44.1,79.5,40.5z"/>
		<path class="st5" d="M54.3,46c-1.6,0.4-3.4-0.5-4.7-1.8c-1.1-1.1-1.9-2.5-2.9-3.7c-0.3,0.1-0.6,0.3-1,0.4
			c-1.4,0.6-2.9,1.1-4.5,1.3c-2.3,0.3-4.6,0-6.7-1.1c-0.5-0.3-1-0.5-1.5-0.8c-0.8-0.5-1.7-0.8-2.4,0c-0.6,0.7-0.8,1.7-0.9,2.6
			c-0.2,1.2-0.2,2.4-0.5,3.6c-0.5,1.5-1.5,3.2-2.9,4.1c-0.3,0.2-0.5,0.3-0.8,0.4c0.7,2.1,1.8,4.2,3.1,6.2c2.3,3.4,5.3,6.4,8.7,8.8
			c0.9-0.1,1.9-0.2,2.8-0.4C50.3,63.2,55.6,51.8,56.8,44c0-0.1,0-0.2,0-0.3C56.2,44.8,55.5,45.7,54.3,46z"/>
		
			<linearGradient id="SVGID_00000070077583488087124130000004215561845157026219_" gradientUnits="userSpaceOnUse" x1="45.8658" y1="95.4846" x2="55.6784" y2="131.4639" gradientTransform="matrix(0.9777 -0.2099 0.2099 0.9777 -39.8839 -63.3469)">
			<stop  offset="5.111371e-02" style="stop-color:#BFD513"/>
			<stop  offset="0.2924" style="stop-color:#B3D513"/>
			<stop  offset="0.7608" style="stop-color:#77B913"/>
		</linearGradient>
		<path style="fill:url(#SVGID_00000070077583488087124130000004215561845157026219_);" d="M50.3,32.9c-0.8-0.3-1.8-0.2-2.5,0.3
			c-1.5,1-4.7,2.3-8.5-2.3c-0.8-1-1.9-1.9-3.1-2.3c-1-0.3-2-0.3-3,0.1c-0.9,0.3-1.7,0.8-2.4,1.4c-0.3,0.3-0.6,0.5-0.9,0.8
			c-0.3,0.3-0.5,0.8-1,0.8c-0.2,0-0.3-0.1-0.4-0.2c0,0,0,0,0,0c-0.1-0.1-0.1-0.1-0.2-0.2c-0.3-0.4-0.7-0.8-1-1.2
			c-0.4-0.4-0.8-0.9-1.4-1c-0.5-0.1-1-0.1-1.4,0.1c-0.5,0.2-0.9,0.6-1.4,0.9c0,0-0.1,0.1-0.1,0.1c-0.6,0.6-1,1.3-1.1,2.1
			c-0.1,0.8,0.1,1.5,0.5,2.2c0.1,0.2,0.3,0.5,0.4,0.7c0.2,0.3,0.6,0.6,0.7,1c0.3,0.9-0.3,2-1,2.5c-1.7,1.3-6.9,5.3-1.1,11
			c0.7,0.7,1.6,1.3,2.5,1.5c0.6,0.1,1.2,0.1,1.7-0.1c0.3-0.1,0.6-0.2,0.8-0.4c1.4-0.9,2.4-2.6,2.9-4.1c0.4-1.2,0.4-2.4,0.5-3.6
			c0.1-0.9,0.3-1.9,0.9-2.6c0.7-0.8,1.7-0.5,2.4,0c0.5,0.3,1,0.6,1.5,0.8c2.1,1,4.4,1.4,6.7,1.1c1.5-0.2,3-0.7,4.5-1.3
			c0.3-0.1,0.6-0.3,1-0.4c2.4-1,5-2.3,4.9-5.2C51.6,34.2,51.2,33.3,50.3,32.9z"/>
	</g>
</g>
</svg>
